<?xml version="1.0" encoding="utf-8"?>
<!-- Generator: Adobe Illustrator 18.1.1, SVG Export Plug-In . SVG Version: 6.00 Build 0)  -->
<svg version="1.1"
	 id="Layer_1" xmlns:dc="http://purl.org/dc/elements/1.1/" xmlns:cc="http://creativecommons.org/ns#" xmlns:rdf="http://www.w3.org/1999/02/22-rdf-syntax-ns#"
	 xmlns="http://www.w3.org/2000/svg" xmlns:xlink="http://www.w3.org/1999/xlink" x="0px" y="0px" viewBox="-209 305.7 192 182.3"
	 enable-background="new -209 305.7 192 182.3" xml:space="preserve">
<path fill="#A5ACAF" d="M-29.8,345.4c-25.6-16.2-84.2-28.5-127.9-38.7l-50.3,54l43.2-0.9c-21.5,34.7-17.1,116.4,37.2,127.2
	c-2.8-5.4-7.7-15.2-1.4-27.4c4.5-8.7,29.4-56.4,29.4-56.4h6c8.1,0,10.7,3,7.2,7.3c21.5-0.3,34.8-8.4,40.7-17.1
	c-4.5-8.3-18.9-18-24.7-21.9h30.1c8.6,0,10.6,3.6,8.6,7.6C-17.6,376.3-10.4,357.6-29.8,345.4"/>
<path fill="#FFFFFF" d="M-33.2,347c-34.9-19.6-121.2-32.6-121.2-32.6l-37,39.6h38.3c-28.3,37.4-22,112.9,19.6,128.6
	c-3-7-4.4-15.2,0.9-25.5c6-11.7,15.6-31.3,29.3-57.6h11.2c9.3,0,12.2,3.9,11,6.9c7.6,0,21.6-0.7,31.7-13
	c-8.4-11.8-36.3-25.5-36.3-25.5H-38c7,0,10.5,2.5,9.6,6.7C-16.2,368.7-19.4,354.8-33.2,347"/>
<path d="M-156.8,320l3.4,4.3l-21.5,23.2l75.7,5.8c-0.1,0.3-0.3,0.6-0.4,0.8h-50.8l3.9,3.7c-3.2,4.5-6,9.4-8.2,14.5l42.5-8.7
	c-0.2,0.3-0.5,0.7-0.7,1l-50.7,16.9l4.5,2.5c-2.1,7-3.5,14.2-4.1,21.4l43-26.1c-0.1,0.4-0.3,0.8-0.4,1.2l-47.5,37.4l4.4,1.1
	c0.2,8.1,1.4,16,3.4,23.4l38.6-45.5c0.1,0.4,0.1,0.7,0.2,1.1l-38.3,56.1l3.6,0.2c4.4,10,10.7,18.2,18.8,23.3
	c-3.1-6.9-2.1-15.2,1.5-22.5c3.1-6.4,43.7-87.1,43.7-87.1l-6.8-3.6h63c6.5,0,10,2.7,10,6.4c4-3.4,4.9-13.6-8.6-21
	C-64,333.6-156.8,320-156.8,320L-156.8,320z"/>
<path d="M-89.8,369.2l0.9,2.6c-2.1,4.1-9.5,18.8-12.1,24h19.3c0.3,3.4,3.7,6.3,7.2,7.1c-2.1-2.8-1.3-5.6,0.3-7.1h9.1
	c2.5,0,1.8,3-2.4,6.2c6.5-1.5,11.3-4.4,14.4-8.6C-59,384.3-89.8,369.2-89.8,369.2L-89.8,369.2z"/>
<path fill="#FFFFFF" d="M-31.3,355.5l0.8,3.6c-5.5,1-15.3,1.9-18,2.1c-0.1,0.3-0.3,0.5-0.4,0.8h14.5c5.8,0,8.2,2.7,8.7,4.3
	C-25,364.1-25.7,358.3-31.3,355.5z"/>
<path fill="#FFFFFF" d="M-47.5,348.4c3.2,1.1,10.5,5.1,13.2,8.3h-5.2C-41.5,353.3-47.5,348.4-47.5,348.4"/>
<path fill="#A71930" d="M-149.1,331.8l-6.1,6.7l100.5,13.9c0.2-0.4,0.4-0.7,0.5-1.1C-74.8,345.3-115.3,337.1-149.1,331.8
	L-149.1,331.8z"/>
<path fill="#A71930" d="M-115.4,359l-27.3,0.6c-1.4,1.9-2.6,3.8-3.8,5.8l30.3-5.4C-115.9,359.7-115.6,359.3-115.4,359L-115.4,359z"
	/>
<path fill="#A71930" d="M-125,374.9l-29.8,10.7c-0.7,2.5-1.2,5-1.7,7.5l31-16.9C-125.4,375.8-125.2,375.4-125,374.9L-125,374.9z"/>
<path fill="#A71930" d="M-91.9,388.3l-2.2,4.3h23.7c0.2-0.4,0.3-0.7,0.5-1L-91.9,388.3L-91.9,388.3z"/>
<path fill="#A71930" d="M-129.1,394.8l-28.8,24.5c0.2,2.7,0.5,5.4,0.9,8l28-31.2C-129.1,395.7-129.1,395.2-129.1,394.8L-129.1,394.8
	z"/>
<path fill="#A71930" d="M-124,414.2l-25.1,37.9c1.3,2.5,2.8,4.8,4.4,7l21.4-43.8C-123.6,414.9-123.8,414.6-124,414.2L-124,414.2z"/>
</svg>
