<?xml version="1.0" encoding="utf-8"?>
<!-- Generator: Adobe Illustrator 18.1.1, SVG Export Plug-In . SVG Version: 6.00 Build 0)  -->
<svg version="1.1" id="NEW_ENGLAND_PATRIOTS" xmlns="http://www.w3.org/2000/svg" xmlns:xlink="http://www.w3.org/1999/xlink"
	 x="0px" y="0px" viewBox="-180 338.2 250.3 116.8" enable-background="new -180 338.2 250.3 116.8" xml:space="preserve">
<path fill="#FFFFFF" d="M63.6,347c-23.3,6.7-42.5-9.3-71.4-8.8l0,0c0,0-39.7-1.2-77.9,13.2c-38.5,13.7-64.8,24.1-89.7,27.1
	c-5.9,0.9-6.4,9.8,0.6,10.3c23,0.9,38.6-0.8,53.8-3.8c-2.2,6.7,4.6,7.4,4.7,7.4c18.1,2.3,32.7,0.4,47-2.6c-3.6,4.4-0.7,8.3,2.4,9
	c53.9,9.5,74.4,36.8,94.2,56.2c5.5-0.7,17.4-7.8,13.5-22c0,0,1.5-3.2,1.5-5.6l6.8-4.1c0,0-2.9-14.4-3.2-16
	c3.7-1.9,10.5-5.3,10.5-5.3s12.3-43.3,13.8-48.8C71.4,348.1,66.2,346.2,63.6,347z"/>
<path fill="#FFFFFF" d="M-174.8,383.6c43.1-5.9,78.6-26.3,115.2-34.6c1.2,4.5,3.2,13.4,3.2,13.4
	C-108.7,373.4-114.2,385.5-174.8,383.6z"/>
<path fill="#FFFFFF" d="M-116.4,387.1c28.6-4.2,45.9-14.8,62.1-18.2c1,4,2.2,8.1,3,11.3C-93.8,391.8-116.4,387.1-116.4,387.1z"/>
<path fill="#FFFFFF" d="M52,398.4c-4.1,2-8.1,4-12.1,6.2c1.4,5.3,2.1,11,3.4,16.2l-6.2,3.6l0,3.8l-2,5.1c2.3,3,1.7,7.4-0.2,10.5
	c-1.5,2.5-4,4.3-6.4,5.7c0,0-35-47.6-94.6-55.9c16.8-2.7,23.1-10.3,52.1-10.2c-10.3-5.7-23.5-6.1-35.5-3.4
	c-0.6-2.5-2.9-11.7-2.9-11.7c7.8-2.2,15.8-3.1,24-3.7c-7.8-3-16.5-3.3-25.6-2.5c-1.1-4.5-2-8.9-3.2-13.6c15.4-3.5,32.6-5.3,49.1-5.2
	c19.3,0.1,45.2,8.9,45.2,8.9c8.7,2.4,18.9,2.4,27.8-0.3C63.8,357.6,52,398.4,52,398.4z"/>
<path fill="#FFFFFF" d="M40.4,370c-0.6-2.4-1.7-9.1-2.1-9.7l-5.9,7.6c0,0-7.9-2.1-12.4-3c2.8,2.9,5.5,5.6,8,8.5
	c-2.3,3.5-5.3,6.9-7.8,10.3c4.5-1.5,9.1-2.9,13.6-4.5c3.3,3.3,6.8,6.9,10,10.1c-0.6-4.3-1.8-8.6-2.2-12.7l10.3-3.5
	C48.2,372,44.2,371.2,40.4,370z"/>
<path fill="#002244" d="M37.2,352.2c0,0-25.9-8.7-45.2-8.9c-16.5-0.1-33.7,1.6-49.1,5.2c1.2,4.7,2.1,9.1,3.2,13.6
	c9-0.8,17.7-0.5,25.6,2.5c-8.2,0.6-16.2,1.5-24,3.7c0,0,2.2,9.2,2.9,11.7c12-2.7,25.2-2.2,35.5,3.4c-29-0.1-35.3,7.6-52.1,10.2
	c59.6,8.3,94.6,55.9,94.6,55.9c2.4-1.4,4.9-3.2,6.4-5.7c1.8-3.1,2.4-7.5,0.2-10.5l2-5.1l0-3.8l6.2-3.6c-1.3-5.3-2-10.9-3.4-16.2
	c4-2.2,8-4.3,12.1-6.2c0,0,11.8-40.8,13.1-46.4C56.1,354.6,46,354.6,37.2,352.2z"/>
<path fill="#002244" d="M30.1,418.6l-1.5,1.9c1.7,0.6,3.6,1.7,5.2,2.4l-0.1,2.1l-4.5,0.1c-2.1,1.5-3.7,3-5.8,4.5
	c0,0,4.4-0.8,6.8-1.4l4.3,0c-0.5,1.3-1,2.4-1.5,3.5l-4.2,0.2c0,0,2.6,3.1,4.3,5c2,3.4-3.5,7.5-3.5,7.5
	c-9.8-10.9-20.4-22.4-33.4-29.8c1.3-2,3.3-3.1,5.6-2.9c4.8,0.9,9,4.2,10.1,5.4c1.5,1.6,4.2,5.7,5.1,6.3c-0.4-3.3-1.6-6.6-2.4-9.9
	l-14.6-10c1.5-4.1,6.8-7,11.5-7.1c4.5-0.1,8.8-0.1,12.2,2.5c-7.6-0.1-10.4,3.7-11.5,7.3c-0.1,0.3,15.6-0.1,15.6-0.1
	c0.6-1.6,0.8-3.3,2-4.7c1.2-1.7,3.4-2.3,5.3-2.4c0.4,1.3,3.8,19.4,3.8,19.4C35.8,418.5,33.2,418.4,30.1,418.6z"/>
<path fill="#FFFFFF" d="M43.9,389.4c-3.2-3.2-6.7-6.8-10-10.1c-4.5,1.6-9.1,2.9-13.6,4.5c2.4-3.4,5.4-6.8,7.8-10.3
	c-2.5-2.9-5.2-5.5-8-8.5c4.4,0.9,12.4,3,12.4,3l5.9-7.6c0.3,0.6,1.5,7.3,2.1,9.7c3.8,1.2,7.8,1.9,11.5,3.1l-10.3,3.5
	C42,380.7,43.3,385.1,43.9,389.4z"/>
<path fill="#B0B7BC" d="M29.6,401.5c-1.1,1.4-1.4,3.1-2,4.7c0,0-15.7,0.3-15.6,0.1c1.1-3.5,3.9-7.4,11.5-7.3
	c-3.3-2.6-7.7-2.7-12.2-2.5c-4.6,0.1-9.9,3-11.5,7.1l14.6,10c0.8,3.3,2,6.6,2.4,9.9c-0.8-0.6-3.6-4.7-5.1-6.3
	c-1.2-1.2-5.3-4.5-10.1-5.4c-2.3-0.2-4.3,0.8-5.6,2.9c13,7.4,23.6,18.9,33.4,29.8c0,0,5.5-4.1,3.5-7.5c-1.8-2-4.3-5-4.3-5l4.2-0.2
	c0.5-1.1,1-2.2,1.5-3.5l-4.3,0c-2.3,0.6-6.8,1.4-6.8,1.4c2.1-1.5,3.7-3,5.8-4.5l4.5-0.1l0.1-2.1c-1.6-0.7-3.5-1.8-5.2-2.4l1.5-1.9
	c3-0.2,5.6-0.1,8.6-0.2c0,0-3.4-18.1-3.8-19.4C33,399.1,30.8,399.7,29.6,401.5z"/>
<path fill="#C60C30" d="M-54.3,368.9c-16.2,3.4-33.5,14.1-62.1,18.2c0,0,22.6,4.7,65.1-6.9C-52.1,377-53.3,372.9-54.3,368.9z"/>
<path fill="#C0001D" d="M-59.6,349c-36.6,8.3-72.1,28.7-115.2,34.6c60.6,1.9,66.1-10.2,118.4-21.2C-56.4,362.4-58.5,353.5-59.6,349z
	"/>
</svg>
