<?xml version="1.0" encoding="utf-8"?>
<!-- Generator: Adobe Illustrator 18.1.1, SVG Export Plug-In . SVG Version: 6.00 Build 0)  -->
<svg version="1.1"
	 id="Layer_1" xmlns:dc="http://purl.org/dc/elements/1.1/" xmlns:cc="http://creativecommons.org/ns#" xmlns:rdf="http://www.w3.org/1999/02/22-rdf-syntax-ns#"
	 xmlns="http://www.w3.org/2000/svg" xmlns:xlink="http://www.w3.org/1999/xlink" x="0px" y="0px" viewBox="-210 331.8 190.6 131.2"
	 enable-background="new -210 331.8 190.6 131.2" xml:space="preserve">
<path fill="#FFFFFF" d="M-99,341.5l-9.3,9.7c15.2-6.3,48.4-17.2,48.4-17.2l-10.6,10.4c29-8.6,51.1-12.7,51.1-12.7
	s-6.4,14.9-15.9,29.8c1.8-0.2,13.9-1.6,13.9-1.6s-10.9,18-23.4,30.9l7,1.7c0,0-10.9,15.8-25.4,28.6c-20.7,18.5-31.4,15.6-31.4,15.6
	c-15.4,11.2-27.7,5.5-27.7,5.5s5.3-13.5-0.2-14.9c-5-1.3-12.5,2.6-13.5,4.1c-1,3.4-5.1,12-9.4,17.2c-8.2,10-17.2,14.1-17.2,14.1
	s-7.1-6.1-7.2-16.5c0,0-4.9,5.2-12.9,6.9c-5.6,1.2-13.2,0.2-21-6.3c-5.2-4.4-6.2-19.1-6.2-19.1s4.9-9.4,14.4-17.7
	c-2.1-1.8-3.4-4.1-3.8-5.5c25.3-11,25.3-21.6,45.4-34.4C-134.1,357.9-121.7,352-99,341.5"/>
<path fill="#004C54" d="M-111.3,350.4l-7.9,8.3c15.7-6.9,48.8-18.2,48.8-18.2l-9.6,9.4c34-10.5,55.5-14.1,55.5-14.1s-7,15.7-16.4,29
	c4.5-0.4,14-1.5,14-1.5s-9.5,15.9-23.4,29.3c1.6,0.2,7.9,1.7,7.9,1.7s-8.4,12.5-23.1,25.4c-18.7,16.4-27,14.4-27,14.4
	s0.2-0.6,0.2-1.6c0-0.5-0.1-1-0.1-1.1c-14.4,13.6-26.4,9-26.4,9s5.3-12.9-2.8-15.5c-6.3-2-16,3.2-16.8,5.9c-0.8,3-4.9,11.4-8.8,16.3
	c-6.9,8.5-14.6,12.4-14.6,12.4s-7-5.4-4.5-21c0.5-3.4-0.1-4.7-0.5-5.3c-1.1-1.7-10,0.2-12.2,5.1c-1.5,3.5,7.3,6.5,7.3,6.5
	s-4.1,4.5-11.2,6c-4.5,0.9-11.4,0.6-18.7-5.7c-4.3-3.7-5.2-16.4-5.2-16.4s5.3-9.8,15.7-18.2c-2.1-1.3-3.6-3.6-4-4.5
	c20.9-9,23.8-21.8,47.4-36C-137,363.3-125.4,356.7-111.3,350.4"/>
<path d="M-55.7,394.4c0.8,0.2,4.3,0.8,6.2,1.6c-7.2,11.7-28.7,34.6-40.7,35.5c-0.1-2-0.9-3.7-1.9-4.9c-4.5,8.2-18.3,13.3-24,12
	c6.9-25.4-22.5-15.7-24.8-8.8c-5.9,18.1-20.7,26.6-20.7,26.6s-4.8-5.4-2.7-17.6c1.5-9-4.2-8.7-4.2-8.7c-2.3-0.1-10.9,0.9-13.6,6.9
	c-2.2,4.8,5.5,8.2,5.5,8.2s-11.1,8.8-23.9-2.1c-3.1-2.7-4.3-14-4.3-14c6.2-10.2,14.3-16.7,17.6-19.1c-3.6-1.4-4.7-3.2-4.7-3.2
	c17.2-7.9,23.9-21,38.6-30.7c16.1-10.7,28.5-16,28.5-16l-4.7,5.9c0,0,3.9-1.7,5.6-2.5c15.4-7.5,41.4-15.8,41.4-15.8l-8.1,7.9
	c0,0,13.5-4.6,30.4-8.2c9-1.9,27.9-5.9,27.9-5.9s-4.4,13-13.8,26.3c5.7-0.4,11.8-0.7,11.8-0.7S-40.8,380.2-55.7,394.4"/>
<path d="M-125.6,376.8c-0.2,0.1-0.4,0.1-0.6,0.2C-126,376.9-125.8,376.9-125.6,376.8C-125.6,376.8-125.6,376.8-125.6,376.8"/>
<path d="M-126.3,377C-126.2,377-126.2,377-126.3,377C-126.2,377-126.2,377-126.3,377"/>
<path fill="#FFFFFF" stroke="#FFFFFF" d="M-106,407.5c0,0-8.2-4-21.2,0.2c0,0,17.9-10.6,40.5-6.1c-14.7-4.9-27.9-2.6-35.7,0
	c-4.6,1.8-7.3,3.2-7.3,3.2s1.1-0.8,3.3-2.1c5.3-3.9,12.6-8.1,19.8-11.1c5-2.1,15-4.7,19-5c0,0-10.4-1.8-19.9,0.6
	c0,0,15.1-5.9,29.7-6.2c4.9-0.1,16.1,0.5,16.1,0.5c-16.1-4.8-32.9-5.7-44.3-4c-6.5,1.6-11.6,3.2-11.6,3.2s0.9-0.5,2.6-1.2
	c4.1-2.4,21-11.5,52.5-16.4c0,0-4-0.5-8.9-0.5c-5,0-14.9,1.7-14.9,1.7c7.2-3.3,20.6-6.4,37.3-8c0,0-25.5-3-56.3,6.6
	c-0.3,0.1-0.4,0.2-0.4,0.2s3.3-2.4,6.9-4.8c2.7-1.8,6.6-4.6,6.6-4.6s-15.8,3.8-37.2,14c-6,2.9-9.2,4.6-9.2,4.6
	c0.9-1.1,5.2-4.8,6.3-6.2c-15.9,7.8-21.7,13-31.2,23c-8.4,8.9-8,10.5-20.8,17.4c0,0,9.4,3.9,19-2.3c1.7-1.1,3.2-2.6,4.7-4.2
	c3.4-3.9,2.3-7.9,6.7-10.8c-0.6,1.5-1.7,3.4-1.8,5.3c2.2-3,6.4-6.9,11.1-9.7c12-7.2,20-8.4,20-8.4c-0.3,0.1-0.6,0.2-0.9,0.3
	c-16.5,6.8-19.1,15.8-19.2,16.7c-0.2,2,5.9-2.5,11-3.1c-5.3,1.9-9.8,6.3-12,11.5c-0.9,2.2-1.2,4.7-3.8,6.6c-0.7,0.7-1.7,1.3-3,1.9
	c-3.5,1.6-5.9,0.8-6.7,0.2c-0.5-0.3-0.8-0.9-0.8-0.9c1.7,0.5,4,0.1,6-1.3c1.5-1,2.7-2.2,3.3-3.5c0,0,0,0,0,0c0.3-0.7,1-2,0-3.8
	c-0.5-0.9-1.4-1.4-2.5-1.5c0.1-0.2,0.6-1.7,2.5-3.8c-2.5,1.8-4,3.9-4.9,4.8c1.2,0.1,2.2,0.7,2.7,1.6c1.1,1.8,0.1,4.5-2.3,5.9
	c-2.4,1.4-5.2,1.1-6.3-0.8c-0.1-0.2-0.2-0.5-0.3-0.7c-0.1,0.1-0.3,0.1-0.4,0.2c-0.7,0.4-2.2,1-2.2,1c0.7,0.2,1.7,0.2,2.3,0.1
	c0.2,2.6,1.8,6.8,11,4.4c-2.6,2.6-8.9,2.4-12.8,0.4c0.5,0.4,1.1,0.8,1.8,1.2c11.5,7.2,24.8,0.4,28-1.4c0.8-0.5,1.6-1,2.4-1.4
	c0,0-3.4,3-5.6,7.6C-133.4,413.8-121.7,405.6-106,407.5"/>
<path fill="#A5ACAF" d="M-148.1,396.1c0.4,1.7,3.4-0.1,3.4-0.1s-4,3.4-5.6,7c0,0.2,0,0.9-0.5,2c0.4,0.1,0.8,0.1,1.1,0.1
	c1-0.1,2.2-0.8,2.2-0.8s0,2.2-2.3,4.3c2.6-2,2.9-4.5,3.8-6.6c2.2-5.2,6.7-9.7,12-11.5c-5,0.6-11.1,5.1-11,3.1
	c0.1-0.9,2.8-9.9,19.2-16.7c-0.2,0.1-0.6,0.2-0.6,0.2C-141.3,382.6-149.3,391.6-148.1,396.1"/>
<path fill="#004C54" d="M-154.4,403c0.8,1.3,0,3.2-1.7,4.2c-1.7,1-3.8,0.8-4.6-0.5c-0.1-0.2-0.2-0.4-0.2-0.6c-0.3,0.2-0.7,0.5-1,0.6
	c0.1,0.3,0.2,0.5,0.3,0.7c1.1,1.8,3.9,2.2,6.3,0.8c2.4-1.4,3.4-4.1,2.3-5.9c-0.6-0.9-1.6-1.5-2.7-1.6c-0.3,0.3-0.6,0.7-0.9,1.1
	C-155.7,401.9-154.8,402.3-154.4,403"/>
<path d="M-156.1,407.3c1.7-1,2.5-2.9,1.7-4.2c-0.4-0.7-1.3-1.1-2.3-1.1c-0.7,0.8-1.5,1.8-2.4,2.6c0,0.7,0.1,1.7,1,2.4
	c0,0-1,0.1-1.7-0.4c-0.4-0.3-0.5-0.6-0.6-0.8c-0.2,0.2-0.4,0.3-0.6,0.5c0,0.2,0.1,0.4,0.2,0.6C-159.9,408.1-157.9,408.3-156.1,407.3
	"/>
<path fill="#FFFFFF" d="M-159.7,406.5c0.7,0.5,1.7,0.4,1.7,0.4c-0.9-0.7-1.1-1.6-1-2.4c-0.4,0.4-0.8,0.8-1.3,1.1
	C-160.2,405.9-160.1,406.2-159.7,406.5"/>
<path fill="#A5ACAF" d="M-61.8,381.6c0,0-11.2-0.6-16.1-0.5c-14.6,0.3-29.7,6.2-29.7,6.2c9.5-2.4,19.9-0.6,19.9-0.6
	c-4.1,0.2-14,2.9-19,5c-7.2,3-14.5,7.2-19.8,11.1c8.5-5,32.6-16.9,63.3-10.3c0,0,2-1.5,7.3-7.4c5.7-6.2,6.9-10,6.9-10
	s-26-2.8-44.9,0.1c-4.1,0.6-8.4,1.6-12.3,2.5C-94.7,375.9-77.9,376.8-61.8,381.6"/>
<path fill="#A5ACAF" d="M-121.8,412.5c21.3-5.3,36,1.1,37.8,7.8c0,0,0.1,0,0.2-0.1c0.9-0.5,4.2-1.9,9.1-6.8c5.2-5.1,8.5-9.3,9.8-12
	c-21.8-10.9-45.8-4.3-57.5,0.2c7.8-2.6,21-5,35.7,0c-22.6-4.5-40.5,6.1-40.5,6.1c13-4.2,21.2-0.2,21.2-0.2
	c-15.7-1.9-27.4,6.4-31.5,11.5c-0.3,0.6-0.6,1.3-0.9,2C-134.7,417.5-130.8,414.8-121.8,412.5"/>
<path fill="#A5ACAF" d="M-49.2,356.4c-16.7,1.6-30.2,4.8-37.3,8c0,0,9.9-1.7,14.9-1.7c4.9,0,8.9,0.5,8.9,0.5
	c-31.4,4.9-48.3,14-52.5,16.4c4.2-1.8,13.2-5.2,26.2-7.7c12.2-2.4,26.4-3,32.1-3.6c8.1-7.9,11.3-17.8,11.3-17.8s-14.2,1.1-30.3,4.1
	c-16.7,3.1-27.6,7.5-29.7,8.4C-74.6,353.4-49.2,356.4-49.2,356.4"/>
<path fill="#A5ACAF" d="M-133.8,421.1c0,0,5.4-4,14.5-2.6c13.5,2.2,13.1,10.6,13.1,10.6s6.1-2.6,9.1-7.9c0,0-3.8-3.6-10.7-4.8
	C-125.7,413.2-133.8,421.1-133.8,421.1"/>
<path fill="#A5ACAF" d="M-176.2,417.6c-1.3,0.4-4.2,0.8-2.8-1.2c0,0,1.7-0.9,4-2.1c1,0.8,2,1.4,4.7,1.6
	C-170.2,415.9-175.1,417.3-176.2,417.6L-176.2,417.6z"/>
<path fill="#A5ACAF" d="M-170.6,411.3c-3.5,1.1-7.8,0.8-10.3,0.1c-2.8,1.9-12.8,6.2-19.2,17c0.3,3.7,0.7,8.4,2.2,10.9
	c6.1,9.7,16.9,6.1,16.9,6.1s-16.3-7.2,1.1-17.8c5.6-3.4,20.9-5.9,30.1-2.9c0.8,0.3,1.8,1,1.7,1.2c-1,4.7-4.8,17.8-11.2,21.5
	c-3.5-5.2,5.8-17-3.7-17.4c0,0,2.4,3.7,1.3,8.6c-0.4,2.2-1.9,7.9,0.7,13.9c0,0,14.4-8.6,18.7-28.6c0.6-2,0.9-3.6,1.8-5.1
	C-158.9,426-170.6,411.3-170.6,411.3"/>
<path d="M-179,416.4c-1.4,2,1.5,1.6,2.8,1.2c1.1-0.3,5.9-1.7,5.9-1.7c-2.7-0.3-3.7-0.8-4.7-1.6C-177.3,415.4-179,416.4-179,416.4"/>
</svg>
